<?xml version="1.0" standalone="no"?>
<!DOCTYPE svg PUBLIC "-//W3C//DTD SVG 20010904//EN"
 "http://www.w3.org/TR/2001/REC-SVG-20010904/DTD/svg10.dtd">
<svg version="1.0" xmlns="http://www.w3.org/2000/svg"
 width="140.000000pt" height="140.000000pt" viewBox="0 0 140.000000 140.000000"
 preserveAspectRatio="xMidYMid meet">
<metadata>
Created by potrace 1.14, written by Peter Selinger 2001-2017
</metadata>
<g transform="translate(0.000000,140.000000) scale(0.100000,-0.100000)"
fill="#000000" stroke="none">
<path d="M565 1318 c-66 -39 -194 -113 -285 -165 -91 -52 -169 -98 -173 -102
-10 -10 -10 -692 0 -702 17 -15 584 -339 595 -339 17 0 570 320 588 340 13 14
15 66 15 355 l0 338 -24 16 c-66 45 -568 330 -581 330 -8 0 -69 -32 -135 -71z
m274 -117 c75 -43 152 -88 171 -99 93 -52 185 -106 189 -109 6 -5 7 -573 1
-582 -4 -6 -60 -40 -190 -113 -19 -11 -97 -56 -172 -100 l-137 -79 -248 143
-248 144 0 294 0 294 245 142 c135 78 247 143 249 143 2 1 65 -34 140 -78z"/>
<path d="M676 1037 c-10 -17 -42 -79 -71 -137 -133 -264 -144 -343 -62 -437
65 -74 164 -93 253 -48 98 50 136 152 98 271 -21 68 -174 376 -189 381 -5 1
-18 -12 -29 -30z"/>
</g>
</svg>
